<?xml version="1.0" encoding="utf-8"?>
<svg version="1.1" xmlns="http://www.w3.org/2000/svg" xmlns:xlink="http://www.w3.org/1999/xlink"
	 x="0px" y="0px" viewBox="0 0 1000 1000" xml:space="preserve">
	<circle fill="#FFFFFF" cx="500" cy="500" r="475"/>
	<circle cx="500" cy="500" r="60"/>
	<path d="M500,0C223.9,0,0,223.9,0,500s223.9,500,500,500s500-223.9,500-500S776.1,0,500,0z M500,940
	C257,940,60,743,60,500S257,60,500,60s440,197,440,440S743,940,500,940z"/>
	<path d="M500,164c16.4,0,32.8,7.9,48.6,23.5c16.6,16.3,31.6,40.1,44.6,70.6c13.4,31.2,23.9,67.6,31.2,108.2
	c7.7,42.3,11.6,87.3,11.6,133.7s-3.9,91.4-11.6,133.7c-7.4,40.6-17.9,77.1-31.2,108.2c-13.1,30.5-28.1,54.2-44.6,70.6
	C532.8,828.1,516.4,836,500,836s-32.8-7.9-48.6-23.5c-16.6-16.3-31.6-40.1-44.6-70.6c-13.4-31.2-23.9-67.6-31.2-108.2
	C367.9,591.4,364,546.4,364,500s3.9-91.4,11.6-133.7c7.4-40.6,17.9-77.1,31.2-108.2c13.1-30.5,28.1-54.2,44.6-70.6
	C467.2,171.9,483.6,164,500,164 M500,150c-82.8,0-150,156.7-150,350s67.2,350,150,350s150-156.7,150-350S582.8,150,500,150L500,150z"/>
	<path d="M699.9,296c23.5,0,43.5,3.3,59.3,9.6c15.2,6.1,26.2,15,32.8,26.4c8.2,14.2,9.5,32.3,4,53.8
	c-5.9,22.5-18.9,47.4-38.8,73.9c-20.3,27.2-46.6,54.5-78.1,81.2c-32.8,27.8-69.8,53.7-110,76.9c-47.2,27.3-97,49.5-144,64.4
	c-45,14.2-87.5,21.8-122.9,21.8c-23.5,0-43.5-3.2-59.3-9.6c-15.2-6.1-26.2-15-32.8-26.4c-8.2-14.2-9.5-32.3-4-53.8
	c5.9-22.5,18.9-47.4,38.8-73.9c20.3-27.2,46.6-54.5,78.1-81.2c32.8-27.8,69.8-53.7,110-76.9c47.2-27.3,97-49.6,144-64.4
	C622,303.5,664.5,296,699.9,296L699.9,296h0.1 M699.9,282c-73.6,0-174.1,30.4-273.9,88.1C258.6,466.7,156.5,603.3,197.9,675
	c16.7,29,54.3,43,104.2,43c73.6,0,174.1-30.4,273.9-88.1C743.4,533.3,845.5,396.7,804.1,325C787.4,296,749.8,282,699.9,282
	L699.9,282z"/>
	<path d="M302.6,295c35.4,0,77.9,7.6,122.9,21.9c46.9,14.9,96.7,37.2,144,64.5c40.2,23.2,77.2,49.1,110,76.9
	c31.5,26.7,57.8,54,78.1,81.2c19.9,26.5,32.9,51.4,38.8,73.9c5.6,21.5,4.3,39.5-4,53.8c-6.6,11.4-17.6,20.3-32.8,26.4
	c-15.9,6.4-35.8,9.6-59.3,9.6c-35.4,0-77.9-7.5-122.9-21.8c-46.9-14.9-96.7-37.1-144-64.4c-40.2-23.2-77.2-49.1-110-76.9
	c-31.5-26.7-57.8-54-78.1-81.2c-19.9-26.5-32.9-51.4-38.8-73.9c-5.6-21.5-4.3-39.5,4-53.8c6.6-11.4,17.6-20.4,32.8-26.4
	C259.2,298.3,279.1,295,302.6,295h0.4 M302.6,281.2c-49.9,0-87.5,14-104.2,43C157,395.9,259.1,532.4,426.5,629
	c99.8,57.6,200.2,88.1,273.9,88.1c49.9,0,87.5-14,104.2-43c41.4-71.7-60.7-208.3-228.1-304.9C476.7,311.6,376.3,281.2,302.6,281.2
	L302.6,281.2z"/>
</svg>
