<?xml version="1.0" encoding="utf-8"?>
<svg version="1.1" xmlns="http://www.w3.org/2000/svg" xmlns:xlink="http://www.w3.org/1999/xlink"
	 x="0px" y="0px" viewBox="0 0 1000 1000" xml:space="preserve">
	<circle fill="#FFFFFF" cx="500" cy="500" r="475"/>
	<path d="M783.7,546.1l43.8-132.2L715.2,292.3L490.9,205L246.3,330.4L150,486l40.8,98.5l-5.7,84l72.5,56l150.6,21.3
	l95.1-29.1L638.1,795l156.4-75l55.5-83.7L783.7,546.1z M382.3,293l112.4-42l16.1,42H382.3z M434.7,474.6l91.8,12.3l7.4,42
	L434.7,474.6z M690,315.8l93.7,89l-112-6.9l-94.4-53.7L540.5,261L690,315.8z M782.7,689.8l-130.6-2.1l-95.8-135.7l126.3,98.7
	l94.2-60.4l34.3,44.7L782.7,689.8z"/>
	<path d="M500,0C223.9,0,0,223.9,0,500s223.9,500,500,500s500-223.9,500-500S776.1,0,500,0z M500,940
	C257,940,60,743,60,500S257,60,500,60s440,197,440,440S743,940,500,940z"/>
</svg>
