<?xml version="1.0" encoding="utf-8"?>
<svg version="1.1" xmlns="http://www.w3.org/2000/svg" xmlns:xlink="http://www.w3.org/1999/xlink" x="0px" y="0px" viewBox="0 0 1000 1000" xml:space="preserve">
	<circle fill="#FFFFFF" cx="500" cy="500" r="475"/>
	<path d="M500,0C223.9,0,0,223.9,0,500c0,170.3,85.1,320.6,215.1,410.9c12.4-14.2,28.6-27.3,48.3-38.7l14.9-8.6
	c26.6-19.1,41.1-41.8,41-65.1c0-27.6-20.3-54.4-57-75.5c-50.1-28.8-77.6-68.3-77.6-111.2c0-42.6,27.3-81.8,76.7-110.4L246.8,476
	l98.3,0.1L296,561.2l-13.9-24c-36.2,20.9-56.1,47.4-56.1,74.6c0,27.5,20.2,54.3,56.9,75.4c50.1,28.8,77.7,68.3,77.7,111.2
	c0.1,42.7-27.1,81.9-76.6,110.5l-15.1,8.7c-7,5-13.2,10.3-18.5,15.7c49.4,28.5,104.1,48.8,162.3,59c-0.2-2.8-0.4-5.6-0.4-8.4
	c-0.1-43.1,27.5-82.8,77.7-111.7l14.9-8.6c26.6-19.1,41.1-41.8,41-65.1c0-27.6-20.3-54.4-57-75.5c-50.1-28.8-77.6-68.3-77.6-111.2
	c0-42.6,27.3-81.8,76.7-110.4L473.5,476l98.3,0.1l-49.1,85.2l-13.9-24c-36.2,20.9-56.1,47.4-56.1,74.6c0,27.5,20.2,54.3,56.9,75.4
	c50.1,28.8,77.7,68.3,77.7,111.2c0.1,42.7-27.1,81.9-76.6,110.5l-15.1,8.7c-27.2,19.5-42,42.5-41.9,66.2c0,4.8,0.6,9.5,1.9,14.2
	c14.6,1.3,29.4,1.9,44.4,1.9c48.3,0,95-6.9,139.2-19.6c1.5-41.7,28.9-79.9,77.6-108.1l14.9-8.6c26.6-19.1,41.1-41.8,41-65.1
	c0-27.6-20.3-54.4-57-75.5c-50.1-28.8-77.6-68.3-77.6-111.2c0-42.6,27.3-81.8,76.7-110.4L700.2,476l98.3,0.1l-49.1,85.2l-13.9-24
	c-36.2,20.9-56.1,47.4-56.1,74.6c0,27.5,20.2,54.3,56.9,75.4C786.4,716,814,755.5,814,798.5c0.1,42.7-27.1,81.9-76.6,110.5
	l-15.1,8.7c-20,14.3-33.3,30.6-38.9,47.6C868.8,892.1,1000,711.4,1000,500C1000,223.9,776.1,0,500,0z M98.8,319
	C167.8,166.3,321.5,60,500,60s332.2,106.3,401.2,259H98.8z"/>
</svg>
