<?xml version="1.0" encoding="utf-8"?>
<svg version="1.1" xmlns="http://www.w3.org/2000/svg" xmlns:xlink="http://www.w3.org/1999/xlink"
	 x="0px" y="0px" viewBox="0 0 1000 1000" xml:space="preserve">
	<circle fill="#FFFFFF" cx="500" cy="500" r="475"/>
	<path d="M500,0C223.9,0,0,223.9,0,500s223.9,500,500,500s500-223.9,500-500S776.1,0,500,0z M803.1,181
	c-21.3-1.4-53-2.7-71.9,1.1c-25.5,5.2-51.1-0.7-75.4,1.4c-118.5,9.9-78.8-49.4-149.3-38.1c-70.5,11.3-74.7,5.6-117-12.7
	c-42.3-18.3-46.5-2.8-69.1,7.1c-5.1,2.2-9.6,1.4-17.3-3c-4.7-2.7-16.2-11.1-24.4-17.2C343.7,81.7,419.3,60,500,60
	C617.5,60,724.2,106,803.1,181z M204.1,825.7L323.7,552c0,0-6.3-27.4,12.7-42.2l122.4,4.2c-17.9,12.6-8.5,46.4-8.5,46.4l-73.6,199.9
	l86.8-197.8c0,0-10.9-29.4,13.2-47.9l123.3,4.2c-16.9,19-8.4,43.2-8.4,43.2L512,771.4L604.8,562c0,0-11-30.9,11.6-42.6l111.3,4.1
	c0,0-16.3,15.3-9.5,43.2L578.7,933c-25.5,4.6-51.9,7-78.7,7C386.1,940,282.3,896.7,204.1,825.7z M618.6,923.8L749,580.5V476.4
	l-446.3-9.4l-0.1-34.3l-34.6-1.6l-17.2,5.8h0.1l45.1,2.1v93.3L178.2,800.1C109.7,726.7,66.1,629.9,60.6,523
	c62.6,1.8,125.8,3.9,186.4,6.3v-64l-185.3-4.1c2.9-33.6,9.6-66.1,19.7-97.1c51.2,2.9,125.1,5.9,191.1,4.3
	c115.6-2.9,277.8,16.9,153.7-28.3c0,0-49.4-62-258.1-95.9c-3.3-0.5-14.5-1.1-25-1.6c3.6-5,7.4-10,11.2-14.8c7.1,1.1,14.6,2.3,16,2.6
	c187,30.3,250.2,83.8,263.9,97.7c5,1.9,9.7,3.6,13.9,5.3c28.5,4.9,66.8,9.6,114.1,11.3c87.7,3.3,227.5,0.5,347.6,6.4
	c1.4,0.1,2.8,0.1,4.2,0.1c14.6,40.6,23.4,83.9,25.4,129l-139.7-3.1l-0.7-25.6l-29.7-1.9l-18.5,5.3l-1,0l40.1,3.2v94.8
	c53.5,2.3,104.5,5.5,145.7,8.5C911.4,735.8,784.8,877.4,618.6,923.8z"/>
</svg>
