<?xml version="1.0" encoding="utf-8"?>
<svg version="1.1" xmlns="http://www.w3.org/2000/svg" xmlns:xlink="http://www.w3.org/1999/xlink" x="0px" y="0px" viewBox="0 0 1000 1000"
	 xml:space="preserve">
	<circle fill="#FFFFFF" cx="500" cy="500" r="475"/>
	<path d="M564.4,842.5C702.9,791.4,722.2,660.7,680.5,494C620.7,254.5,420,150,420,150s59.5,142.7,16.4,222.3
	C406,428.4,315.8,509,302.4,600.6C289,692.3,328,835,502.1,850c0,0-102.9-111.2-59.7-235.8S588.2,473,588.2,473
	s-52.1,57.1-32.8,102.1c20.3,47.3,38.5,55.5,53.3,98.1C638.9,759.9,564.4,842.5,564.4,842.5z"/>
	<path d="M500,0C223.9,0,0,223.9,0,500s223.9,500,500,500s500-223.9,500-500S776.1,0,500,0z M500,940
	C257,940,60,743,60,500S257,60,500,60s440,197,440,440S743,940,500,940z"/>
</svg>
