<?xml version="1.0" encoding="utf-8"?>
<svg version="1.1" xmlns="http://www.w3.org/2000/svg" xmlns:xlink="http://www.w3.org/1999/xlink"
	 x="0px" y="0px" viewBox="0 0 1000 1000" xml:space="preserve">
	<circle fill="#FFFFFF" cx="500" cy="500" r="475"/>
	<path d="M500,1000c276.1,0,500-223.9,500-500S776.1,0,500,0S0,223.9,0,500S223.9,1000,500,1000z M500,60
	c243,0,440,197,440,440S743,940,500,940S60,743,60,500S257,60,500,60z"/>
	<circle cx="500" cy="500" r="75"/>
	<path d="M109.9,500H400c0-37,20.1-69.3,49.9-86.6L304.9,162l0-0.3c-57.4,33.1-107.2,81.3-142.7,142.8
	c-35.5,61.5-52.4,129-52.3,195.2L109.9,500z"/>
	<path d="M500,890c71,0,137.7-19,195-52.2l0-0.1L550,586.6c-14.7,8.5-31.8,13.4-50,13.4s-35.3-4.9-50-13.4L305,837.7
	l0,0C362.3,871,428.9,890,500,890z"/>
	<path d="M600,500h290.1l0.1,0.3c0.1-66.3-16.8-133.4-52.3-194.9c-35.5-61.5-85.3-109.7-142.7-142.7l0-0.2l-145,251
	C579.9,430.8,600,463,600,500z"/>
</svg>
