<?xml version="1.0" encoding="utf-8"?>
<svg version="1.1" xmlns="http://www.w3.org/2000/svg" xmlns:xlink="http://www.w3.org/1999/xlink"
	 x="0px" y="0px" viewBox="0 0 1000 1000" xml:space="preserve">
	<circle fill="#FFFFFF" cx="500" cy="500" r="475"/>
	<ellipse cx="410.1" cy="206.7" rx="38.3" ry="14.3"/>
	<path d="M713.2,495.2c9-9.3,14.3-19.3,14.3-29.8c0-10.4-5.3-20.5-14.3-29.7V264.9c9-9.2,14.2-19.9,14.2-29.9h-0.2
	c0-48-101.8-85.1-227.4-85.1s-227.4,37.3-227.4,85.1l0.3,0c0.2,10.1,5.1,19.9,14.1,28.9v171.9c-9,9.2-13.9,19.2-13.9,29.6
	c0,10.3,4.9,20.2,13.9,29.4v240.6c-9,9.2-14.1,19.2-14.1,29.6c0,47,101.7,85.1,227.2,85.1s227.5-38.1,227.5-85.1
	c0-10.4-5.3-20.5-14.3-29.7V495.2z M690.3,778.1c-10.7,7.7-26,15-44.1,21.2c-39.9,13.5-91.9,20.9-146.3,20.9
	c-54.4,0-106.4-7.4-146.3-20.9c-18.2-6.1-33.4-13.5-44.1-21.2c-8.8-6.3-12-11.1-13.1-13.1c0.5-1,1.7-2.7,3.7-5
	c2.1,2.2,5.1,5,9.4,8.2c10.7,7.7,25.9,15,44.1,21.2c39.9,13.5,92,20.9,146.5,20.9c14.9,0,29-0.6,44-1.6V548.9
	c44-3.2,83-11,113.1-22.1v258.4c13-5.2,24.6-11,33-17.1c4.4-3.2,7.5-6,9.5-8.2c2.1,2.3,3.2,4,3.7,5
	C702.3,767,699.1,771.7,690.3,778.1z M690.3,478.6c-10.7,7.7-26,15-44.1,21.2c-39.9,13.5-91.9,20.9-146.3,20.9
	c-54.4,0-106.4-7.4-146.3-20.9c-18.2-6.1-33.4-13.5-44.1-21.2c-8.8-6.3-12-11.1-13.1-13.1c0.5-1,1.7-2.7,3.7-5
	c2.1,2.2,5.1,5,9.4,8.2c10.7,7.7,25.9,15,44.1,21.2c39.9,13.5,92,20.9,146.5,20.9c14.9,0,29-0.6,44-1.6V318.5c44-3.2,83-11,113.1-22
	v189.2c13-5.2,24.6-11,33-17.1c4.4-3.2,7.5-6,9.5-8.2c2.1,2.3,3.2,4,3.7,5C702.3,467.4,699.1,472.2,690.3,478.6z M690.3,248.1
	c-10.7,7.7-26,14.8-44.1,21c-39.9,13.5-91.9,20.8-146.3,20.8c-54.4,0-106.4-7.5-146.3-21c-18.2-6.1-33.4-13.5-44.1-21.2
	c-8.8-6.3-12-11.1-13.1-13.1c13.2-42.8,87-64.6,203.5-64.6c116.6,0,190.4,22.5,203.6,65.3C702.4,237.3,699.1,241.8,690.3,248.1z"/>
	<path d="M500,0C223.9,0,0,223.9,0,500s223.9,500,500,500s500-223.9,500-500S776.1,0,500,0z M500,940
	C257,940,60,743,60,500S257,60,500,60s440,197,440,440S743,940,500,940z"/>
</svg>
