<?xml version="1.0" encoding="utf-8"?>
<svg version="1.1" xmlns="http://www.w3.org/2000/svg" xmlns:xlink="http://www.w3.org/1999/xlink"
	 x="0px" y="0px" viewBox="0 0 1000 1000" xml:space="preserve">
	<circle fill="#FFFFFF" cx="500" cy="500" r="475"/>
	<path d="M500,0C223.9,0,0,223.9,0,500s223.9,500,500,500s500-223.9,500-500S776.1,0,500,0z M500,940
	C257,940,60,743,60,500S257,60,500,60s440,197,440,440S743,940,500,940z"/>
	<path d="M631.8,450.3C505.2,281.5,500.1,154.4,500,150c-0.1,4.4-5.2,131.5-131.8,300.3
	C239.9,621.5,314.4,820,500,820C685.6,820,760.1,621.5,631.8,450.3z M623.5,720.2c0,0-14.1-31.4-42.9-32.3
	c0,0,32.8-127.8-40.2-284.9C540.4,403,667.1,531.1,623.5,720.2z"/>
</svg>
