<?xml version="1.0" encoding="utf-8"?>
<svg version="1.1" xmlns="http://www.w3.org/2000/svg" xmlns:xlink="http://www.w3.org/1999/xlink"
	 x="0px" y="0px" viewBox="0 0 1000 1000" xml:space="preserve">
	<circle fill="#FFFFFF" cx="500" cy="500" r="475"/>
	<path d="M497.7,439.1c-4.2-0.2-8.3-1.1-12.3-2.6c-1.2-0.5-2.4-1.4-3.6-1.9L464.5,941h35.7h35.7l-16.1-470.8
	C511.7,459.4,504.3,449.2,497.7,439.1z"/>
	<path d="M595.6,467.9c-21.1-25.3-42.1-47.6-60.5-64.7c1.8-9,0-18.1-4.6-25.6c11.6-22.5,23.9-50.7,35.4-81.9
	c29.1-79.3,41.4-147.8,27.5-152.9c-13.9-5.1-48.8,55.1-77.9,134.4c-11.4,31.1-20.2,60.4-25.9,85c-8.6,2.7-16.2,8.7-20.7,17
	c-25.2,1.2-55.7,4.6-88.3,10.3c-83.3,14.5-148.7,38-146.1,52.7c2.5,14.6,72.1,14.7,155.3,0.3c32.5-5.6,62.2-12.7,86.3-20
	c3.3,3.1,7.3,5.5,11.8,7.2c4.6,1.7,9.2,2.3,13.8,2.1c13.6,21.1,31.6,45.5,52.6,70.6c54.2,64.9,107.3,109.7,118.7,100.2
	C684.4,593.1,649.7,532.8,595.6,467.9z M518.5,402.8c-3.7,10.1-14.9,15.3-25,11.6c-10.1-3.7-15.3-14.9-11.6-25
	c3.7-10.1,14.9-15.3,25-11.6C517,381.6,522.2,392.8,518.5,402.8z"/>
	<path d="M500,0C223.9,0,0,223.9,0,500s223.9,500,500,500s500-223.9,500-500S776.1,0,500,0z M500,940
	C257,940,60,743,60,500S257,60,500,60s440,197,440,440S743,940,500,940z"/>
</svg>
